<?xml version="1.0" encoding="UTF-8" standalone="no"?>
<!DOCTYPE svg PUBLIC "-//W3C//DTD SVG 1.1//EN"
 "http://www.w3.org/Graphics/SVG/1.1/DTD/svg11.dtd">
<!-- Generated by graphviz version 2.38.0 (20140413.2041)
 -->
<!-- Title: Tree Pages: 1 -->
<svg width="1097pt" height="552pt"
 viewBox="0.00 0.00 1097.00 552.00" xmlns="http://www.w3.org/2000/svg" xmlns:xlink="http://www.w3.org/1999/xlink">
<g id="graph0" class="graph" transform="scale(1 1) rotate(0) translate(4 548)">
<title>Tree</title>
<polygon fill="white" stroke="none" points="-4,4 -4,-548 1093,-548 1093,4 -4,4"/>
<!-- 0 -->
<g id="node1" class="node"><title>0</title>
<path fill="#399de5" fill-opacity="0.403922" stroke="black" d="M670,-544C670,-544 542,-544 542,-544 536,-544 530,-538 530,-532 530,-532 530,-473 530,-473 530,-467 536,-461 542,-461 542,-461 670,-461 670,-461 676,-461 682,-467 682,-473 682,-473 682,-532 682,-532 682,-538 676,-544 670,-544"/>
<text text-anchor="start" x="538" y="-528.8" font-family="Helvetica,sans-Serif" font-size="14.00">worst radius ≤ 16.795</text>
<text text-anchor="start" x="568.5" y="-513.8" font-family="Helvetica,sans-Serif" font-size="14.00">gini = 0.468</text>
<text text-anchor="start" x="558.5" y="-498.8" font-family="Helvetica,sans-Serif" font-size="14.00">samples = 426</text>
<text text-anchor="start" x="549" y="-483.8" font-family="Helvetica,sans-Serif" font-size="14.00">value = [159, 267]</text>
<text text-anchor="start" x="560" y="-468.8" font-family="Helvetica,sans-Serif" font-size="14.00">class = benign</text>
</g>
<!-- 1 -->
<g id="node2" class="node"><title>1</title>
<path fill="#399de5" fill-opacity="0.901961" stroke="black" d="M593.5,-425C593.5,-425 416.5,-425 416.5,-425 410.5,-425 404.5,-419 404.5,-413 404.5,-413 404.5,-354 404.5,-354 404.5,-348 410.5,-342 416.5,-342 416.5,-342 593.5,-342 593.5,-342 599.5,-342 605.5,-348 605.5,-354 605.5,-354 605.5,-413 605.5,-413 605.5,-419 599.5,-425 593.5,-425"/>
<text text-anchor="start" x="412.5" y="-409.8" font-family="Helvetica,sans-Serif" font-size="14.00">worst concave points ≤ 0.136</text>
<text text-anchor="start" x="467.5" y="-394.8" font-family="Helvetica,sans-Serif" font-size="14.00">gini = 0.161</text>
<text text-anchor="start" x="457.5" y="-379.8" font-family="Helvetica,sans-Serif" font-size="14.00">samples = 284</text>
<text text-anchor="start" x="452" y="-364.8" font-family="Helvetica,sans-Serif" font-size="14.00">value = [25, 259]</text>
<text text-anchor="start" x="459" y="-349.8" font-family="Helvetica,sans-Serif" font-size="14.00">class = benign</text>
</g>
<!-- 0&#45;&gt;1 -->
<g id="edge1" class="edge"><title>0&#45;&gt;1</title>
<path fill="none" stroke="black" d="M570.959,-460.907C563.124,-451.832 554.741,-442.121 546.669,-432.769"/>
<polygon fill="black" stroke="black" points="549.163,-430.303 539.98,-425.021 543.865,-434.878 549.163,-430.303"/>
<text text-anchor="middle" x="538.15" y="-446.254" font-family="Helvetica,sans-Serif" font-size="14.00">True</text>
</g>
<!-- 14 -->
<g id="node15" class="node"><title>14</title>
<path fill="#e58139" fill-opacity="0.941176" stroke="black" d="M768.5,-425C768.5,-425 647.5,-425 647.5,-425 641.5,-425 635.5,-419 635.5,-413 635.5,-413 635.5,-354 635.5,-354 635.5,-348 641.5,-342 647.5,-342 647.5,-342 768.5,-342 768.5,-342 774.5,-342 780.5,-348 780.5,-354 780.5,-354 780.5,-413 780.5,-413 780.5,-419 774.5,-425 768.5,-425"/>
<text text-anchor="start" x="643.5" y="-409.8" font-family="Helvetica,sans-Serif" font-size="14.00">texture error ≤ 0.473</text>
<text text-anchor="start" x="670.5" y="-394.8" font-family="Helvetica,sans-Serif" font-size="14.00">gini = 0.106</text>
<text text-anchor="start" x="660.5" y="-379.8" font-family="Helvetica,sans-Serif" font-size="14.00">samples = 142</text>
<text text-anchor="start" x="659.5" y="-364.8" font-family="Helvetica,sans-Serif" font-size="14.00">value = [134, 8]</text>
<text text-anchor="start" x="657" y="-349.8" font-family="Helvetica,sans-Serif" font-size="14.00">class = maligant</text>
</g>
<!-- 0&#45;&gt;14 -->
<g id="edge14" class="edge"><title>0&#45;&gt;14</title>
<path fill="none" stroke="black" d="M641.388,-460.907C649.3,-451.832 657.766,-442.121 665.919,-432.769"/>
<polygon fill="black" stroke="black" points="668.741,-434.859 672.674,-425.021 663.465,-430.259 668.741,-434.859"/>
<text text-anchor="middle" x="674.382" y="-446.262" font-family="Helvetica,sans-Serif" font-size="14.00">False</text>
</g>
<!-- 2 -->
<g id="node3" class="node"><title>2</title>
<path fill="#399de5" fill-opacity="0.984314" stroke="black" d="M370,-306C370,-306 254,-306 254,-306 248,-306 242,-300 242,-294 242,-294 242,-235 242,-235 242,-229 248,-223 254,-223 254,-223 370,-223 370,-223 376,-223 382,-229 382,-235 382,-235 382,-294 382,-294 382,-300 376,-306 370,-306"/>
<text text-anchor="start" x="250" y="-290.8" font-family="Helvetica,sans-Serif" font-size="14.00">radius error ≤ 1.048</text>
<text text-anchor="start" x="274.5" y="-275.8" font-family="Helvetica,sans-Serif" font-size="14.00">gini = 0.031</text>
<text text-anchor="start" x="264.5" y="-260.8" font-family="Helvetica,sans-Serif" font-size="14.00">samples = 252</text>
<text text-anchor="start" x="263.5" y="-245.8" font-family="Helvetica,sans-Serif" font-size="14.00">value = [4, 248]</text>
<text text-anchor="start" x="266" y="-230.8" font-family="Helvetica,sans-Serif" font-size="14.00">class = benign</text>
</g>
<!-- 1&#45;&gt;2 -->
<g id="edge2" class="edge"><title>1&#45;&gt;2</title>
<path fill="none" stroke="black" d="M438.04,-341.907C421.722,-332.016 404.158,-321.368 387.475,-311.254"/>
<polygon fill="black" stroke="black" points="389.208,-308.212 378.842,-306.021 385.579,-314.198 389.208,-308.212"/>
</g>
<!-- 7 -->
<g id="node8" class="node"><title>7</title>
<path fill="#e58139" fill-opacity="0.474510" stroke="black" d="M567.5,-306C567.5,-306 442.5,-306 442.5,-306 436.5,-306 430.5,-300 430.5,-294 430.5,-294 430.5,-235 430.5,-235 430.5,-229 436.5,-223 442.5,-223 442.5,-223 567.5,-223 567.5,-223 573.5,-223 579.5,-229 579.5,-235 579.5,-235 579.5,-294 579.5,-294 579.5,-300 573.5,-306 567.5,-306"/>
<text text-anchor="start" x="438.5" y="-290.8" font-family="Helvetica,sans-Serif" font-size="14.00">worst texture ≤ 25.62</text>
<text text-anchor="start" x="467.5" y="-275.8" font-family="Helvetica,sans-Serif" font-size="14.00">gini = 0.451</text>
<text text-anchor="start" x="461.5" y="-260.8" font-family="Helvetica,sans-Serif" font-size="14.00">samples = 32</text>
<text text-anchor="start" x="456.5" y="-245.8" font-family="Helvetica,sans-Serif" font-size="14.00">value = [21, 11]</text>
<text text-anchor="start" x="454" y="-230.8" font-family="Helvetica,sans-Serif" font-size="14.00">class = maligant</text>
</g>
<!-- 1&#45;&gt;7 -->
<g id="edge7" class="edge"><title>1&#45;&gt;7</title>
<path fill="none" stroke="black" d="M505,-341.907C505,-333.649 505,-324.864 505,-316.302"/>
<polygon fill="black" stroke="black" points="508.5,-316.021 505,-306.021 501.5,-316.021 508.5,-316.021"/>
</g>
<!-- 3 -->
<g id="node4" class="node"><title>3</title>
<path fill="#399de5" fill-opacity="0.988235" stroke="black" d="M223,-187C223,-187 67,-187 67,-187 61,-187 55,-181 55,-175 55,-175 55,-116 55,-116 55,-110 61,-104 67,-104 67,-104 223,-104 223,-104 229,-104 235,-110 235,-116 235,-116 235,-175 235,-175 235,-181 229,-187 223,-187"/>
<text text-anchor="start" x="63" y="-171.8" font-family="Helvetica,sans-Serif" font-size="14.00">smoothness error ≤ 0.003</text>
<text text-anchor="start" x="107.5" y="-156.8" font-family="Helvetica,sans-Serif" font-size="14.00">gini = 0.024</text>
<text text-anchor="start" x="97.5" y="-141.8" font-family="Helvetica,sans-Serif" font-size="14.00">samples = 251</text>
<text text-anchor="start" x="96.5" y="-126.8" font-family="Helvetica,sans-Serif" font-size="14.00">value = [3, 248]</text>
<text text-anchor="start" x="99" y="-111.8" font-family="Helvetica,sans-Serif" font-size="14.00">class = benign</text>
</g>
<!-- 2&#45;&gt;3 -->
<g id="edge3" class="edge"><title>2&#45;&gt;3</title>
<path fill="none" stroke="black" d="M254.06,-222.907C240.2,-213.197 225.3,-202.758 211.102,-192.811"/>
<polygon fill="black" stroke="black" points="213.036,-189.892 202.837,-187.021 209.019,-195.625 213.036,-189.892"/>
</g>
<!-- 6 -->
<g id="node7" class="node"><title>6</title>
<path fill="#e58139" stroke="black" d="M359,-179.5C359,-179.5 265,-179.5 265,-179.5 259,-179.5 253,-173.5 253,-167.5 253,-167.5 253,-123.5 253,-123.5 253,-117.5 259,-111.5 265,-111.5 265,-111.5 359,-111.5 359,-111.5 365,-111.5 371,-117.5 371,-123.5 371,-123.5 371,-167.5 371,-167.5 371,-173.5 365,-179.5 359,-179.5"/>
<text text-anchor="start" x="283" y="-164.3" font-family="Helvetica,sans-Serif" font-size="14.00">gini = 0.0</text>
<text text-anchor="start" x="272.5" y="-149.3" font-family="Helvetica,sans-Serif" font-size="14.00">samples = 1</text>
<text text-anchor="start" x="271.5" y="-134.3" font-family="Helvetica,sans-Serif" font-size="14.00">value = [1, 0]</text>
<text text-anchor="start" x="261" y="-119.3" font-family="Helvetica,sans-Serif" font-size="14.00">class = maligant</text>
</g>
<!-- 2&#45;&gt;6 -->
<g id="edge6" class="edge"><title>2&#45;&gt;6</title>
<path fill="none" stroke="black" d="M312,-222.907C312,-212.204 312,-200.615 312,-189.776"/>
<polygon fill="black" stroke="black" points="315.5,-189.667 312,-179.667 308.5,-189.667 315.5,-189.667"/>
</g>
<!-- 4 -->
<g id="node5" class="node"><title>4</title>
<path fill="#399de5" fill-opacity="0.666667" stroke="black" d="M96,-68C96,-68 12,-68 12,-68 6,-68 0,-62 0,-56 0,-56 0,-12 0,-12 0,-6 6,-0 12,-0 12,-0 96,-0 96,-0 102,-0 108,-6 108,-12 108,-12 108,-56 108,-56 108,-62 102,-68 96,-68"/>
<text text-anchor="start" x="16.5" y="-52.8" font-family="Helvetica,sans-Serif" font-size="14.00">gini = 0.375</text>
<text text-anchor="start" x="14.5" y="-37.8" font-family="Helvetica,sans-Serif" font-size="14.00">samples = 4</text>
<text text-anchor="start" x="13.5" y="-22.8" font-family="Helvetica,sans-Serif" font-size="14.00">value = [1, 3]</text>
<text text-anchor="start" x="8" y="-7.8" font-family="Helvetica,sans-Serif" font-size="14.00">class = benign</text>
</g>
<!-- 3&#45;&gt;4 -->
<g id="edge4" class="edge"><title>3&#45;&gt;4</title>
<path fill="none" stroke="black" d="M111.115,-103.726C103.611,-94.6966 95.6551,-85.1235 88.1409,-76.0816"/>
<polygon fill="black" stroke="black" points="90.757,-73.7534 81.6736,-68.2996 85.3733,-78.2275 90.757,-73.7534"/>
</g>
<!-- 5 -->
<g id="node6" class="node"><title>5</title>
<path fill="#399de5" fill-opacity="0.992157" stroke="black" d="M227.5,-68C227.5,-68 138.5,-68 138.5,-68 132.5,-68 126.5,-62 126.5,-56 126.5,-56 126.5,-12 126.5,-12 126.5,-6 132.5,-0 138.5,-0 138.5,-0 227.5,-0 227.5,-0 233.5,-0 239.5,-6 239.5,-12 239.5,-12 239.5,-56 239.5,-56 239.5,-62 233.5,-68 227.5,-68"/>
<text text-anchor="start" x="145.5" y="-52.8" font-family="Helvetica,sans-Serif" font-size="14.00">gini = 0.016</text>
<text text-anchor="start" x="135.5" y="-37.8" font-family="Helvetica,sans-Serif" font-size="14.00">samples = 247</text>
<text text-anchor="start" x="134.5" y="-22.8" font-family="Helvetica,sans-Serif" font-size="14.00">value = [2, 245]</text>
<text text-anchor="start" x="137" y="-7.8" font-family="Helvetica,sans-Serif" font-size="14.00">class = benign</text>
</g>
<!-- 3&#45;&gt;5 -->
<g id="edge5" class="edge"><title>3&#45;&gt;5</title>
<path fill="none" stroke="black" d="M159.15,-103.726C162.062,-95.3351 165.137,-86.4745 168.075,-78.0072"/>
<polygon fill="black" stroke="black" points="171.472,-78.8944 171.444,-68.2996 164.859,-76.5994 171.472,-78.8944"/>
</g>
<!-- 8 -->
<g id="node9" class="node"><title>8</title>
<path fill="#399de5" fill-opacity="0.666667" stroke="black" d="M561,-187C561,-187 401,-187 401,-187 395,-187 389,-181 389,-175 389,-175 389,-116 389,-116 389,-110 395,-104 401,-104 401,-104 561,-104 561,-104 567,-104 573,-110 573,-116 573,-116 573,-175 573,-175 573,-181 567,-187 561,-187"/>
<text text-anchor="start" x="397" y="-171.8" font-family="Helvetica,sans-Serif" font-size="14.00">worst smoothness ≤ 0.179</text>
<text text-anchor="start" x="443.5" y="-156.8" font-family="Helvetica,sans-Serif" font-size="14.00">gini = 0.375</text>
<text text-anchor="start" x="437.5" y="-141.8" font-family="Helvetica,sans-Serif" font-size="14.00">samples = 12</text>
<text text-anchor="start" x="440.5" y="-126.8" font-family="Helvetica,sans-Serif" font-size="14.00">value = [3, 9]</text>
<text text-anchor="start" x="435" y="-111.8" font-family="Helvetica,sans-Serif" font-size="14.00">class = benign</text>
</g>
<!-- 7&#45;&gt;8 -->
<g id="edge8" class="edge"><title>7&#45;&gt;8</title>
<path fill="none" stroke="black" d="M496.673,-222.907C494.961,-214.558 493.138,-205.671 491.363,-197.02"/>
<polygon fill="black" stroke="black" points="494.75,-196.114 489.312,-187.021 487.893,-197.52 494.75,-196.114"/>
</g>
<!-- 11 -->
<g id="node12" class="node"><title>11</title>
<path fill="#e58139" fill-opacity="0.890196" stroke="black" d="M746.5,-187C746.5,-187 603.5,-187 603.5,-187 597.5,-187 591.5,-181 591.5,-175 591.5,-175 591.5,-116 591.5,-116 591.5,-110 597.5,-104 603.5,-104 603.5,-104 746.5,-104 746.5,-104 752.5,-104 758.5,-110 758.5,-116 758.5,-116 758.5,-175 758.5,-175 758.5,-181 752.5,-187 746.5,-187"/>
<text text-anchor="start" x="599.5" y="-171.8" font-family="Helvetica,sans-Serif" font-size="14.00">worst symmetry ≤ 0.268</text>
<text text-anchor="start" x="641.5" y="-156.8" font-family="Helvetica,sans-Serif" font-size="14.00">gini = 0.18</text>
<text text-anchor="start" x="631.5" y="-141.8" font-family="Helvetica,sans-Serif" font-size="14.00">samples = 20</text>
<text text-anchor="start" x="630.5" y="-126.8" font-family="Helvetica,sans-Serif" font-size="14.00">value = [18, 2]</text>
<text text-anchor="start" x="624" y="-111.8" font-family="Helvetica,sans-Serif" font-size="14.00">class = maligant</text>
</g>
<!-- 7&#45;&gt;11 -->
<g id="edge11" class="edge"><title>7&#45;&gt;11</title>
<path fill="none" stroke="black" d="M563.981,-222.907C578.09,-213.197 593.257,-202.758 607.71,-192.811"/>
<polygon fill="black" stroke="black" points="609.87,-195.573 616.124,-187.021 605.902,-189.807 609.87,-195.573"/>
</g>
<!-- 9 -->
<g id="node10" class="node"><title>9</title>
<path fill="#399de5" fill-opacity="0.890196" stroke="black" d="M392,-68C392,-68 308,-68 308,-68 302,-68 296,-62 296,-56 296,-56 296,-12 296,-12 296,-6 302,-0 308,-0 308,-0 392,-0 392,-0 398,-0 404,-6 404,-12 404,-12 404,-56 404,-56 404,-62 398,-68 392,-68"/>
<text text-anchor="start" x="316.5" y="-52.8" font-family="Helvetica,sans-Serif" font-size="14.00">gini = 0.18</text>
<text text-anchor="start" x="306.5" y="-37.8" font-family="Helvetica,sans-Serif" font-size="14.00">samples = 10</text>
<text text-anchor="start" x="309.5" y="-22.8" font-family="Helvetica,sans-Serif" font-size="14.00">value = [1, 9]</text>
<text text-anchor="start" x="304" y="-7.8" font-family="Helvetica,sans-Serif" font-size="14.00">class = benign</text>
</g>
<!-- 8&#45;&gt;9 -->
<g id="edge9" class="edge"><title>8&#45;&gt;9</title>
<path fill="none" stroke="black" d="M432.22,-103.726C420.872,-94.2406 408.807,-84.1551 397.514,-74.7159"/>
<polygon fill="black" stroke="black" points="399.755,-72.0276 389.838,-68.2996 395.266,-77.3984 399.755,-72.0276"/>
</g>
<!-- 10 -->
<g id="node11" class="node"><title>10</title>
<path fill="#e58139" stroke="black" d="M528,-68C528,-68 434,-68 434,-68 428,-68 422,-62 422,-56 422,-56 422,-12 422,-12 422,-6 428,-0 434,-0 434,-0 528,-0 528,-0 534,-0 540,-6 540,-12 540,-12 540,-56 540,-56 540,-62 534,-68 528,-68"/>
<text text-anchor="start" x="452" y="-52.8" font-family="Helvetica,sans-Serif" font-size="14.00">gini = 0.0</text>
<text text-anchor="start" x="441.5" y="-37.8" font-family="Helvetica,sans-Serif" font-size="14.00">samples = 2</text>
<text text-anchor="start" x="440.5" y="-22.8" font-family="Helvetica,sans-Serif" font-size="14.00">value = [2, 0]</text>
<text text-anchor="start" x="430" y="-7.8" font-family="Helvetica,sans-Serif" font-size="14.00">class = maligant</text>
</g>
<!-- 8&#45;&gt;10 -->
<g id="edge10" class="edge"><title>8&#45;&gt;10</title>
<path fill="none" stroke="black" d="M481,-103.726C481,-95.5175 481,-86.8595 481,-78.56"/>
<polygon fill="black" stroke="black" points="484.5,-78.2996 481,-68.2996 477.5,-78.2996 484.5,-78.2996"/>
</g>
<!-- 12 -->
<g id="node13" class="node"><title>12</title>
<path fill="#399de5" fill-opacity="0.498039" stroke="black" d="M654,-68C654,-68 570,-68 570,-68 564,-68 558,-62 558,-56 558,-56 558,-12 558,-12 558,-6 564,-0 570,-0 570,-0 654,-0 654,-0 660,-0 666,-6 666,-12 666,-12 666,-56 666,-56 666,-62 660,-68 654,-68"/>
<text text-anchor="start" x="574.5" y="-52.8" font-family="Helvetica,sans-Serif" font-size="14.00">gini = 0.444</text>
<text text-anchor="start" x="572.5" y="-37.8" font-family="Helvetica,sans-Serif" font-size="14.00">samples = 3</text>
<text text-anchor="start" x="571.5" y="-22.8" font-family="Helvetica,sans-Serif" font-size="14.00">value = [1, 2]</text>
<text text-anchor="start" x="566" y="-7.8" font-family="Helvetica,sans-Serif" font-size="14.00">class = benign</text>
</g>
<!-- 11&#45;&gt;12 -->
<g id="edge12" class="edge"><title>11&#45;&gt;12</title>
<path fill="none" stroke="black" d="M651.541,-103.726C646.556,-95.0615 641.283,-85.8962 636.268,-77.1802"/>
<polygon fill="black" stroke="black" points="639.179,-75.2219 631.159,-68.2996 633.112,-78.7128 639.179,-75.2219"/>
</g>
<!-- 13 -->
<g id="node14" class="node"><title>13</title>
<path fill="#e58139" stroke="black" d="M790,-68C790,-68 696,-68 696,-68 690,-68 684,-62 684,-56 684,-56 684,-12 684,-12 684,-6 690,-0 696,-0 696,-0 790,-0 790,-0 796,-0 802,-6 802,-12 802,-12 802,-56 802,-56 802,-62 796,-68 790,-68"/>
<text text-anchor="start" x="714" y="-52.8" font-family="Helvetica,sans-Serif" font-size="14.00">gini = 0.0</text>
<text text-anchor="start" x="699.5" y="-37.8" font-family="Helvetica,sans-Serif" font-size="14.00">samples = 17</text>
<text text-anchor="start" x="698.5" y="-22.8" font-family="Helvetica,sans-Serif" font-size="14.00">value = [17, 0]</text>
<text text-anchor="start" x="692" y="-7.8" font-family="Helvetica,sans-Serif" font-size="14.00">class = maligant</text>
</g>
<!-- 11&#45;&gt;13 -->
<g id="edge13" class="edge"><title>11&#45;&gt;13</title>
<path fill="none" stroke="black" d="M700.321,-103.726C705.758,-94.9703 711.513,-85.7032 716.977,-76.9051"/>
<polygon fill="black" stroke="black" points="720.019,-78.6413 722.321,-68.2996 714.072,-74.9484 720.019,-78.6413"/>
</g>
<!-- 15 -->
<g id="node16" class="node"><title>15</title>
<path fill="#399de5" stroke="black" d="M750,-298.5C750,-298.5 666,-298.5 666,-298.5 660,-298.5 654,-292.5 654,-286.5 654,-286.5 654,-242.5 654,-242.5 654,-236.5 660,-230.5 666,-230.5 666,-230.5 750,-230.5 750,-230.5 756,-230.5 762,-236.5 762,-242.5 762,-242.5 762,-286.5 762,-286.5 762,-292.5 756,-298.5 750,-298.5"/>
<text text-anchor="start" x="679" y="-283.3" font-family="Helvetica,sans-Serif" font-size="14.00">gini = 0.0</text>
<text text-anchor="start" x="668.5" y="-268.3" font-family="Helvetica,sans-Serif" font-size="14.00">samples = 5</text>
<text text-anchor="start" x="667.5" y="-253.3" font-family="Helvetica,sans-Serif" font-size="14.00">value = [0, 5]</text>
<text text-anchor="start" x="662" y="-238.3" font-family="Helvetica,sans-Serif" font-size="14.00">class = benign</text>
</g>
<!-- 14&#45;&gt;15 -->
<g id="edge15" class="edge"><title>14&#45;&gt;15</title>
<path fill="none" stroke="black" d="M708,-341.907C708,-331.204 708,-319.615 708,-308.776"/>
<polygon fill="black" stroke="black" points="711.5,-308.667 708,-298.667 704.5,-308.667 711.5,-308.667"/>
</g>
<!-- 16 -->
<g id="node17" class="node"><title>16</title>
<path fill="#e58139" fill-opacity="0.976471" stroke="black" d="M944,-306C944,-306 804,-306 804,-306 798,-306 792,-300 792,-294 792,-294 792,-235 792,-235 792,-229 798,-223 804,-223 804,-223 944,-223 944,-223 950,-223 956,-229 956,-235 956,-235 956,-294 956,-294 956,-300 950,-306 944,-306"/>
<text text-anchor="start" x="800" y="-290.8" font-family="Helvetica,sans-Serif" font-size="14.00">worst concavity ≤ 0.191</text>
<text text-anchor="start" x="836.5" y="-275.8" font-family="Helvetica,sans-Serif" font-size="14.00">gini = 0.043</text>
<text text-anchor="start" x="826.5" y="-260.8" font-family="Helvetica,sans-Serif" font-size="14.00">samples = 137</text>
<text text-anchor="start" x="825.5" y="-245.8" font-family="Helvetica,sans-Serif" font-size="14.00">value = [134, 3]</text>
<text text-anchor="start" x="823" y="-230.8" font-family="Helvetica,sans-Serif" font-size="14.00">class = maligant</text>
</g>
<!-- 14&#45;&gt;16 -->
<g id="edge16" class="edge"><title>14&#45;&gt;16</title>
<path fill="none" stroke="black" d="M765.593,-341.907C779.37,-332.197 794.181,-321.758 808.293,-311.811"/>
<polygon fill="black" stroke="black" points="810.352,-314.643 816.509,-306.021 806.319,-308.921 810.352,-314.643"/>
</g>
<!-- 17 -->
<g id="node18" class="node"><title>17</title>
<path fill="#399de5" fill-opacity="0.333333" stroke="black" d="M940.5,-187C940.5,-187 807.5,-187 807.5,-187 801.5,-187 795.5,-181 795.5,-175 795.5,-175 795.5,-116 795.5,-116 795.5,-110 801.5,-104 807.5,-104 807.5,-104 940.5,-104 940.5,-104 946.5,-104 952.5,-110 952.5,-116 952.5,-116 952.5,-175 952.5,-175 952.5,-181 946.5,-187 940.5,-187"/>
<text text-anchor="start" x="803.5" y="-171.8" font-family="Helvetica,sans-Serif" font-size="14.00">worst texture ≤ 30.975</text>
<text text-anchor="start" x="840.5" y="-156.8" font-family="Helvetica,sans-Serif" font-size="14.00">gini = 0.48</text>
<text text-anchor="start" x="834.5" y="-141.8" font-family="Helvetica,sans-Serif" font-size="14.00">samples = 5</text>
<text text-anchor="start" x="833.5" y="-126.8" font-family="Helvetica,sans-Serif" font-size="14.00">value = [2, 3]</text>
<text text-anchor="start" x="828" y="-111.8" font-family="Helvetica,sans-Serif" font-size="14.00">class = benign</text>
</g>
<!-- 16&#45;&gt;17 -->
<g id="edge17" class="edge"><title>16&#45;&gt;17</title>
<path fill="none" stroke="black" d="M874,-222.907C874,-214.649 874,-205.864 874,-197.302"/>
<polygon fill="black" stroke="black" points="877.5,-197.021 874,-187.021 870.5,-197.021 877.5,-197.021"/>
</g>
<!-- 20 -->
<g id="node21" class="node"><title>20</title>
<path fill="#e58139" stroke="black" d="M1077,-179.5C1077,-179.5 983,-179.5 983,-179.5 977,-179.5 971,-173.5 971,-167.5 971,-167.5 971,-123.5 971,-123.5 971,-117.5 977,-111.5 983,-111.5 983,-111.5 1077,-111.5 1077,-111.5 1083,-111.5 1089,-117.5 1089,-123.5 1089,-123.5 1089,-167.5 1089,-167.5 1089,-173.5 1083,-179.5 1077,-179.5"/>
<text text-anchor="start" x="1001" y="-164.3" font-family="Helvetica,sans-Serif" font-size="14.00">gini = 0.0</text>
<text text-anchor="start" x="982.5" y="-149.3" font-family="Helvetica,sans-Serif" font-size="14.00">samples = 132</text>
<text text-anchor="start" x="981.5" y="-134.3" font-family="Helvetica,sans-Serif" font-size="14.00">value = [132, 0]</text>
<text text-anchor="start" x="979" y="-119.3" font-family="Helvetica,sans-Serif" font-size="14.00">class = maligant</text>
</g>
<!-- 16&#45;&gt;20 -->
<g id="edge20" class="edge"><title>16&#45;&gt;20</title>
<path fill="none" stroke="black" d="M928.123,-222.907C944.16,-210.88 961.687,-197.735 977.612,-185.791"/>
<polygon fill="black" stroke="black" points="979.877,-188.467 985.777,-179.667 975.677,-182.867 979.877,-188.467"/>
</g>
<!-- 18 -->
<g id="node19" class="node"><title>18</title>
<path fill="#399de5" stroke="black" d="M916,-68C916,-68 832,-68 832,-68 826,-68 820,-62 820,-56 820,-56 820,-12 820,-12 820,-6 826,-0 832,-0 832,-0 916,-0 916,-0 922,-0 928,-6 928,-12 928,-12 928,-56 928,-56 928,-62 922,-68 916,-68"/>
<text text-anchor="start" x="845" y="-52.8" font-family="Helvetica,sans-Serif" font-size="14.00">gini = 0.0</text>
<text text-anchor="start" x="834.5" y="-37.8" font-family="Helvetica,sans-Serif" font-size="14.00">samples = 3</text>
<text text-anchor="start" x="833.5" y="-22.8" font-family="Helvetica,sans-Serif" font-size="14.00">value = [0, 3]</text>
<text text-anchor="start" x="828" y="-7.8" font-family="Helvetica,sans-Serif" font-size="14.00">class = benign</text>
</g>
<!-- 17&#45;&gt;18 -->
<g id="edge18" class="edge"><title>17&#45;&gt;18</title>
<path fill="none" stroke="black" d="M874,-103.726C874,-95.5175 874,-86.8595 874,-78.56"/>
<polygon fill="black" stroke="black" points="877.5,-78.2996 874,-68.2996 870.5,-78.2996 877.5,-78.2996"/>
</g>
<!-- 19 -->
<g id="node20" class="node"><title>19</title>
<path fill="#e58139" stroke="black" d="M1052,-68C1052,-68 958,-68 958,-68 952,-68 946,-62 946,-56 946,-56 946,-12 946,-12 946,-6 952,-0 958,-0 958,-0 1052,-0 1052,-0 1058,-0 1064,-6 1064,-12 1064,-12 1064,-56 1064,-56 1064,-62 1058,-68 1052,-68"/>
<text text-anchor="start" x="976" y="-52.8" font-family="Helvetica,sans-Serif" font-size="14.00">gini = 0.0</text>
<text text-anchor="start" x="965.5" y="-37.8" font-family="Helvetica,sans-Serif" font-size="14.00">samples = 2</text>
<text text-anchor="start" x="964.5" y="-22.8" font-family="Helvetica,sans-Serif" font-size="14.00">value = [2, 0]</text>
<text text-anchor="start" x="954" y="-7.8" font-family="Helvetica,sans-Serif" font-size="14.00">class = maligant</text>
</g>
<!-- 17&#45;&gt;19 -->
<g id="edge19" class="edge"><title>17&#45;&gt;19</title>
<path fill="none" stroke="black" d="M922.78,-103.726C934.128,-94.2406 946.193,-84.1551 957.486,-74.7159"/>
<polygon fill="black" stroke="black" points="959.734,-77.3984 965.162,-68.2996 955.245,-72.0276 959.734,-77.3984"/>
</g>
</g>
</svg>
